<?xml version="1.0" encoding="UTF-8"?>
<svg xmlns="http://www.w3.org/2000/svg" id="Capa_1" enable-background="new 0 0 512 512" height="512" viewBox="0 0 512 512" width="512">
  <path d="m124.359 451h116.641v-60h30v60h116.641c68.286 0 109.646-29.872 124.359-35.729v-195.485c-2.179-1.464-58.805-68.786-160.853-68.786h-50.147v30c-11.219 0-80.184 0-90 0v-30h-50.147c-100.168 0-159.324 67.759-160.853 68.787v195.484c14.853 5.912 56.033 35.729 124.359 35.729zm86.641-30c-10.492 0-19.508 0-30 0v-30h30zm90-120h-30v-30h30zm-60 0h-30v-30h30zm0 30v30c-17.847 0-41.78 0-60 0v-30zm30 30v-30h60v30c-18.228 0-42.154 0-60 0zm30 60v-30h30v30c-10.492 0-19.508 0-30 0zm30-240h20.147c48.548 0 95.883 18.647 130.853 51.357v164.372c-4.695 1.77-39.821 24.271-94.359 24.271h-26.641c0-11.707 0-42.508 0-98.072 14.204-8.238 24.729-22.126 28.483-38.574 13.51 10.78 30.111 16.646 47.517 16.646h15v-30h-15c-24.935 0-46-20.607-46-45v-15h-30v60c0 16.542-13.458 30-30 30zm-60 30h30v30h-30zm-30 0v30h-30v-30zm-211 21.357c34.97-32.711 82.304-51.357 130.853-51.357h20.147v120c-16.542 0-30-13.458-30-30v-60h-30v15c0 24.813-20.187 45-45 45h-16v30h16c17.599 0 33.79-6.109 46.597-16.297 3.823 16.295 14.299 30.045 28.403 38.225v98.072h-26.641c-54.765 0-89.327-22.374-94.359-24.271z" style="fill: #e3e2e2;"></path>
  <path d="m241 61h30v60h-30z" style="fill: #e3e2e2;"></path>
  <path d="m303.958 83.5h54.083v30h-54.083z" transform="matrix(.555 -.832 .832 .555 65.438 319.272)" style="fill: #f1f1f1;"></path>
  <path d="m166 71.458h30v54.083h-30z" transform="matrix(.832 -.555 .555 .832 -24.239 116.944)" style="fill: #f1f1f1;"></path>
</svg>
